# Low-poly stone turret tower (baked vertex-color shading)
# Generated procedurally. Format: v x y z r g b
v 0.4342 0.2000 0.1799 0.3557 0.3352 0.3010
v 0.1799 0.2000 0.4342 0.3557 0.3352 0.3010
v 0.2066 0.0000 0.4989 0.3557 0.3352 0.3010
v 0.4989 0.0000 0.2066 0.3557 0.3352 0.3010
v 0.1799 0.2000 0.4342 0.3157 0.2975 0.2672
v -0.1799 0.2000 0.4342 0.3157 0.2975 0.2672
v -0.2066 0.0000 0.4989 0.3157 0.2975 0.2672
v 0.2066 0.0000 0.4989 0.3157 0.2975 0.2672
v -0.1799 0.2000 0.4342 0.2378 0.2241 0.2012
v -0.4342 0.2000 0.1799 0.2378 0.2241 0.2012
v -0.4989 0.0000 0.2066 0.2378 0.2241 0.2012
v -0.2066 0.0000 0.4989 0.2378 0.2241 0.2012
v -0.4342 0.2000 0.1799 0.1910 0.1799 0.1616
v -0.4342 0.2000 -0.1799 0.1910 0.1799 0.1616
v -0.4989 0.0000 -0.2066 0.1910 0.1799 0.1616
v -0.4989 0.0000 0.2066 0.1910 0.1799 0.1616
v -0.4342 0.2000 -0.1799 0.1910 0.1799 0.1616
v -0.1799 0.2000 -0.4342 0.1910 0.1799 0.1616
v -0.2066 0.0000 -0.4989 0.1910 0.1799 0.1616
v -0.4989 0.0000 -0.2066 0.1910 0.1799 0.1616
v -0.1799 0.2000 -0.4342 0.1910 0.1799 0.1616
v 0.1799 0.2000 -0.4342 0.1910 0.1799 0.1616
v 0.2066 0.0000 -0.4989 0.1910 0.1799 0.1616
v -0.2066 0.0000 -0.4989 0.1910 0.1799 0.1616
v 0.1799 0.2000 -0.4342 0.2640 0.2488 0.2234
v 0.4342 0.2000 -0.1799 0.2640 0.2488 0.2234
v 0.4989 0.0000 -0.2066 0.2640 0.2488 0.2234
v 0.2066 0.0000 -0.4989 0.2640 0.2488 0.2234
v 0.4342 0.2000 -0.1799 0.3343 0.3150 0.2828
v 0.4342 0.2000 0.1799 0.3343 0.3150 0.2828
v 0.4989 0.0000 0.2066 0.3343 0.3150 0.2828
v 0.4989 0.0000 -0.2066 0.3343 0.3150 0.2828
v 0.4342 0.2000 -0.1799 0.5008 0.4780 0.4325
v 0.1799 0.2000 -0.4342 0.5008 0.4780 0.4325
v -0.1799 0.2000 -0.4342 0.5008 0.4780 0.4325
v -0.4342 0.2000 -0.1799 0.5008 0.4780 0.4325
v -0.4342 0.2000 0.1799 0.5008 0.4780 0.4325
v -0.1799 0.2000 0.4342 0.5008 0.4780 0.4325
v 0.1799 0.2000 0.4342 0.5008 0.4780 0.4325
v 0.4342 0.2000 0.1799 0.5008 0.4780 0.4325
v 0.3141 0.9000 0.1301 0.4288 0.4093 0.3704
v 0.1301 0.9000 0.3141 0.4288 0.4093 0.3704
v 0.1378 0.2000 0.3326 0.4288 0.4093 0.3704
v 0.3326 0.2000 0.1378 0.4288 0.4093 0.3704
v 0.1301 0.9000 0.3141 0.3700 0.3532 0.3196
v -0.1301 0.9000 0.3141 0.3700 0.3532 0.3196
v -0.1378 0.2000 0.3326 0.3700 0.3532 0.3196
v 0.1378 0.2000 0.3326 0.3700 0.3532 0.3196
v -0.1301 0.9000 0.3141 0.2674 0.2553 0.2310
v -0.3141 0.9000 0.1301 0.2674 0.2553 0.2310
v -0.3326 0.2000 0.1378 0.2674 0.2553 0.2310
v -0.1378 0.2000 0.3326 0.2674 0.2553 0.2310
v -0.3141 0.9000 0.1301 0.2674 0.2553 0.2310
v -0.3141 0.9000 -0.1301 0.2674 0.2553 0.2310
v -0.3326 0.2000 -0.1378 0.2674 0.2553 0.2310
v -0.3326 0.2000 0.1378 0.2674 0.2553 0.2310
v -0.3141 0.9000 -0.1301 0.2674 0.2553 0.2310
v -0.1301 0.9000 -0.3141 0.2674 0.2553 0.2310
v -0.1378 0.2000 -0.3326 0.2674 0.2553 0.2310
v -0.3326 0.2000 -0.1378 0.2674 0.2553 0.2310
v -0.1301 0.9000 -0.3141 0.2674 0.2553 0.2310
v 0.1301 0.9000 -0.3141 0.2674 0.2553 0.2310
v 0.1378 0.2000 -0.3326 0.2674 0.2553 0.2310
v -0.1378 0.2000 -0.3326 0.2674 0.2553 0.2310
v 0.1301 0.9000 -0.3141 0.2939 0.2805 0.2538
v 0.3141 0.9000 -0.1301 0.2939 0.2805 0.2538
v 0.3326 0.2000 -0.1378 0.2939 0.2805 0.2538
v 0.1378 0.2000 -0.3326 0.2939 0.2805 0.2538
v 0.3141 0.9000 -0.1301 0.3973 0.3792 0.3431
v 0.3141 0.9000 0.1301 0.3973 0.3792 0.3431
v 0.3326 0.2000 0.1378 0.3973 0.3792 0.3431
v 0.3326 0.2000 -0.1378 0.3973 0.3792 0.3431
v 0.3141 0.9000 -0.1301 0.4566 0.4302 0.3863
v 0.1301 0.9000 -0.3141 0.4566 0.4302 0.3863
v -0.1301 0.9000 -0.3141 0.4566 0.4302 0.3863
v -0.3141 0.9000 -0.1301 0.4566 0.4302 0.3863
v -0.3141 0.9000 0.1301 0.4566 0.4302 0.3863
v -0.1301 0.9000 0.3141 0.4566 0.4302 0.3863
v 0.1301 0.9000 0.3141 0.4566 0.4302 0.3863
v 0.3141 0.9000 0.1301 0.4566 0.4302 0.3863
v 0.3880 1.0000 0.1607 0.3599 0.3391 0.3045
v 0.1607 1.0000 0.3880 0.3599 0.3391 0.3045
v 0.1607 0.9000 0.3880 0.3599 0.3391 0.3045
v 0.3880 0.9000 0.1607 0.3599 0.3391 0.3045
v 0.1607 1.0000 0.3880 0.3097 0.2918 0.2621
v -0.1607 1.0000 0.3880 0.3097 0.2918 0.2621
v -0.1607 0.9000 0.3880 0.3097 0.2918 0.2621
v 0.1607 0.9000 0.3880 0.3097 0.2918 0.2621
v -0.1607 1.0000 0.3880 0.2282 0.2151 0.1931
v -0.3880 1.0000 0.1607 0.2282 0.2151 0.1931
v -0.3880 0.9000 0.1607 0.2282 0.2151 0.1931
v -0.1607 0.9000 0.3880 0.2282 0.2151 0.1931
v -0.3880 1.0000 0.1607 0.2282 0.2151 0.1931
v -0.3880 1.0000 -0.1607 0.2282 0.2151 0.1931
v -0.3880 0.9000 -0.1607 0.2282 0.2151 0.1931
v -0.3880 0.9000 0.1607 0.2282 0.2151 0.1931
v -0.3880 1.0000 -0.1607 0.2282 0.2151 0.1931
v -0.1607 1.0000 -0.3880 0.2282 0.2151 0.1931
v -0.1607 0.9000 -0.3880 0.2282 0.2151 0.1931
v -0.3880 0.9000 -0.1607 0.2282 0.2151 0.1931
v -0.1607 1.0000 -0.3880 0.2282 0.2151 0.1931
v 0.1607 1.0000 -0.3880 0.2282 0.2151 0.1931
v 0.1607 0.9000 -0.3880 0.2282 0.2151 0.1931
v -0.1607 0.9000 -0.3880 0.2282 0.2151 0.1931
v 0.1607 1.0000 -0.3880 0.2447 0.2306 0.2071
v 0.3880 1.0000 -0.1607 0.2447 0.2306 0.2071
v 0.3880 0.9000 -0.1607 0.2447 0.2306 0.2071
v 0.1607 0.9000 -0.3880 0.2447 0.2306 0.2071
v 0.3880 1.0000 -0.1607 0.3330 0.3138 0.2818
v 0.3880 1.0000 0.1607 0.3330 0.3138 0.2818
v 0.3880 0.9000 0.1607 0.3330 0.3138 0.2818
v 0.3880 0.9000 -0.1607 0.3330 0.3138 0.2818
v 0.3880 1.0000 -0.1607 0.2417 0.3759 0.6444
v 0.1607 1.0000 -0.3880 0.2417 0.3759 0.6444
v -0.1607 1.0000 -0.3880 0.2417 0.3759 0.6444
v -0.3880 1.0000 -0.1607 0.2417 0.3759 0.6444
v -0.3880 1.0000 0.1607 0.2417 0.3759 0.6444
v -0.1607 1.0000 0.3880 0.2417 0.3759 0.6444
v 0.1607 1.0000 0.3880 0.2417 0.3759 0.6444
v 0.3880 1.0000 0.1607 0.2417 0.3759 0.6444
v 0.2128 1.1900 0.2128 0.2980 0.2845 0.2574
v 0.3528 1.1900 0.2128 0.2980 0.2845 0.2574
v 0.3528 1.0100 0.2128 0.2980 0.2845 0.2574
v 0.2128 1.0100 0.2128 0.2980 0.2845 0.2574
v 0.3528 1.1900 0.3528 0.4044 0.3860 0.3493
v 0.2128 1.1900 0.3528 0.4044 0.3860 0.3493
v 0.2128 1.0100 0.3528 0.4044 0.3860 0.3493
v 0.3528 1.0100 0.3528 0.4044 0.3860 0.3493
v 0.2128 1.1900 0.3528 0.2980 0.2845 0.2574
v 0.2128 1.1900 0.2128 0.2980 0.2845 0.2574
v 0.2128 1.0100 0.2128 0.2980 0.2845 0.2574
v 0.2128 1.0100 0.3528 0.2980 0.2845 0.2574
v 0.3528 1.1900 0.2128 0.4348 0.4150 0.3755
v 0.3528 1.1900 0.3528 0.4348 0.4150 0.3755
v 0.3528 1.0100 0.3528 0.4348 0.4150 0.3755
v 0.3528 1.0100 0.2128 0.4348 0.4150 0.3755
v 0.2128 1.1900 0.3528 0.6121 0.5843 0.5286
v 0.3528 1.1900 0.3528 0.6121 0.5843 0.5286
v 0.3528 1.1900 0.2128 0.6121 0.5843 0.5286
v 0.2128 1.1900 0.2128 0.6121 0.5843 0.5286
v -0.0700 1.1900 0.3300 0.2980 0.2845 0.2574
v 0.0700 1.1900 0.3300 0.2980 0.2845 0.2574
v 0.0700 1.0100 0.3300 0.2980 0.2845 0.2574
v -0.0700 1.0100 0.3300 0.2980 0.2845 0.2574
v 0.0700 1.1900 0.4700 0.4044 0.3860 0.3493
v -0.0700 1.1900 0.4700 0.4044 0.3860 0.3493
v -0.0700 1.0100 0.4700 0.4044 0.3860 0.3493
v 0.0700 1.0100 0.4700 0.4044 0.3860 0.3493
v -0.0700 1.1900 0.4700 0.2980 0.2845 0.2574
v -0.0700 1.1900 0.3300 0.2980 0.2845 0.2574
v -0.0700 1.0100 0.3300 0.2980 0.2845 0.2574
v -0.0700 1.0100 0.4700 0.2980 0.2845 0.2574
v 0.0700 1.1900 0.3300 0.4348 0.4150 0.3755
v 0.0700 1.1900 0.4700 0.4348 0.4150 0.3755
v 0.0700 1.0100 0.4700 0.4348 0.4150 0.3755
v 0.0700 1.0100 0.3300 0.4348 0.4150 0.3755
v -0.0700 1.1900 0.4700 0.6121 0.5843 0.5286
v 0.0700 1.1900 0.4700 0.6121 0.5843 0.5286
v 0.0700 1.1900 0.3300 0.6121 0.5843 0.5286
v -0.0700 1.1900 0.3300 0.6121 0.5843 0.5286
v -0.3528 1.1900 0.2128 0.2980 0.2845 0.2574
v -0.2128 1.1900 0.2128 0.2980 0.2845 0.2574
v -0.2128 1.0100 0.2128 0.2980 0.2845 0.2574
v -0.3528 1.0100 0.2128 0.2980 0.2845 0.2574
v -0.2128 1.1900 0.3528 0.4044 0.3860 0.3493
v -0.3528 1.1900 0.3528 0.4044 0.3860 0.3493
v -0.3528 1.0100 0.3528 0.4044 0.3860 0.3493
v -0.2128 1.0100 0.3528 0.4044 0.3860 0.3493
v -0.3528 1.1900 0.3528 0.2980 0.2845 0.2574
v -0.3528 1.1900 0.2128 0.2980 0.2845 0.2574
v -0.3528 1.0100 0.2128 0.2980 0.2845 0.2574
v -0.3528 1.0100 0.3528 0.2980 0.2845 0.2574
v -0.2128 1.1900 0.2128 0.4348 0.4150 0.3755
v -0.2128 1.1900 0.3528 0.4348 0.4150 0.3755
v -0.2128 1.0100 0.3528 0.4348 0.4150 0.3755
v -0.2128 1.0100 0.2128 0.4348 0.4150 0.3755
v -0.3528 1.1900 0.3528 0.6121 0.5843 0.5286
v -0.2128 1.1900 0.3528 0.6121 0.5843 0.5286
v -0.2128 1.1900 0.2128 0.6121 0.5843 0.5286
v -0.3528 1.1900 0.2128 0.6121 0.5843 0.5286
v -0.4700 1.1900 -0.0700 0.2980 0.2845 0.2574
v -0.3300 1.1900 -0.0700 0.2980 0.2845 0.2574
v -0.3300 1.0100 -0.0700 0.2980 0.2845 0.2574
v -0.4700 1.0100 -0.0700 0.2980 0.2845 0.2574
v -0.3300 1.1900 0.0700 0.4044 0.3860 0.3493
v -0.4700 1.1900 0.0700 0.4044 0.3860 0.3493
v -0.4700 1.0100 0.0700 0.4044 0.3860 0.3493
v -0.3300 1.0100 0.0700 0.4044 0.3860 0.3493
v -0.4700 1.1900 0.0700 0.2980 0.2845 0.2574
v -0.4700 1.1900 -0.0700 0.2980 0.2845 0.2574
v -0.4700 1.0100 -0.0700 0.2980 0.2845 0.2574
v -0.4700 1.0100 0.0700 0.2980 0.2845 0.2574
v -0.3300 1.1900 -0.0700 0.4348 0.4150 0.3755
v -0.3300 1.1900 0.0700 0.4348 0.4150 0.3755
v -0.3300 1.0100 0.0700 0.4348 0.4150 0.3755
v -0.3300 1.0100 -0.0700 0.4348 0.4150 0.3755
v -0.4700 1.1900 0.0700 0.6121 0.5843 0.5286
v -0.3300 1.1900 0.0700 0.6121 0.5843 0.5286
v -0.3300 1.1900 -0.0700 0.6121 0.5843 0.5286
v -0.4700 1.1900 -0.0700 0.6121 0.5843 0.5286
v -0.3528 1.1900 -0.3528 0.2980 0.2845 0.2574
v -0.2128 1.1900 -0.3528 0.2980 0.2845 0.2574
v -0.2128 1.0100 -0.3528 0.2980 0.2845 0.2574
v -0.3528 1.0100 -0.3528 0.2980 0.2845 0.2574
v -0.2128 1.1900 -0.2128 0.4044 0.3860 0.3493
v -0.3528 1.1900 -0.2128 0.4044 0.3860 0.3493
v -0.3528 1.0100 -0.2128 0.4044 0.3860 0.3493
v -0.2128 1.0100 -0.2128 0.4044 0.3860 0.3493
v -0.3528 1.1900 -0.2128 0.2980 0.2845 0.2574
v -0.3528 1.1900 -0.3528 0.2980 0.2845 0.2574
v -0.3528 1.0100 -0.3528 0.2980 0.2845 0.2574
v -0.3528 1.0100 -0.2128 0.2980 0.2845 0.2574
v -0.2128 1.1900 -0.3528 0.4348 0.4150 0.3755
v -0.2128 1.1900 -0.2128 0.4348 0.4150 0.3755
v -0.2128 1.0100 -0.2128 0.4348 0.4150 0.3755
v -0.2128 1.0100 -0.3528 0.4348 0.4150 0.3755
v -0.3528 1.1900 -0.2128 0.6121 0.5843 0.5286
v -0.2128 1.1900 -0.2128 0.6121 0.5843 0.5286
v -0.2128 1.1900 -0.3528 0.6121 0.5843 0.5286
v -0.3528 1.1900 -0.3528 0.6121 0.5843 0.5286
v -0.0700 1.1900 -0.4700 0.2980 0.2845 0.2574
v 0.0700 1.1900 -0.4700 0.2980 0.2845 0.2574
v 0.0700 1.0100 -0.4700 0.2980 0.2845 0.2574
v -0.0700 1.0100 -0.4700 0.2980 0.2845 0.2574
v 0.0700 1.1900 -0.3300 0.4044 0.3860 0.3493
v -0.0700 1.1900 -0.3300 0.4044 0.3860 0.3493
v -0.0700 1.0100 -0.3300 0.4044 0.3860 0.3493
v 0.0700 1.0100 -0.3300 0.4044 0.3860 0.3493
v -0.0700 1.1900 -0.3300 0.2980 0.2845 0.2574
v -0.0700 1.1900 -0.4700 0.2980 0.2845 0.2574
v -0.0700 1.0100 -0.4700 0.2980 0.2845 0.2574
v -0.0700 1.0100 -0.3300 0.2980 0.2845 0.2574
v 0.0700 1.1900 -0.4700 0.4348 0.4150 0.3755
v 0.0700 1.1900 -0.3300 0.4348 0.4150 0.3755
v 0.0700 1.0100 -0.3300 0.4348 0.4150 0.3755
v 0.0700 1.0100 -0.4700 0.4348 0.4150 0.3755
v -0.0700 1.1900 -0.3300 0.6121 0.5843 0.5286
v 0.0700 1.1900 -0.3300 0.6121 0.5843 0.5286
v 0.0700 1.1900 -0.4700 0.6121 0.5843 0.5286
v -0.0700 1.1900 -0.4700 0.6121 0.5843 0.5286
v 0.2128 1.1900 -0.3528 0.2980 0.2845 0.2574
v 0.3528 1.1900 -0.3528 0.2980 0.2845 0.2574
v 0.3528 1.0100 -0.3528 0.2980 0.2845 0.2574
v 0.2128 1.0100 -0.3528 0.2980 0.2845 0.2574
v 0.3528 1.1900 -0.2128 0.4044 0.3860 0.3493
v 0.2128 1.1900 -0.2128 0.4044 0.3860 0.3493
v 0.2128 1.0100 -0.2128 0.4044 0.3860 0.3493
v 0.3528 1.0100 -0.2128 0.4044 0.3860 0.3493
v 0.2128 1.1900 -0.2128 0.2980 0.2845 0.2574
v 0.2128 1.1900 -0.3528 0.2980 0.2845 0.2574
v 0.2128 1.0100 -0.3528 0.2980 0.2845 0.2574
v 0.2128 1.0100 -0.2128 0.2980 0.2845 0.2574
v 0.3528 1.1900 -0.3528 0.4348 0.4150 0.3755
v 0.3528 1.1900 -0.2128 0.4348 0.4150 0.3755
v 0.3528 1.0100 -0.2128 0.4348 0.4150 0.3755
v 0.3528 1.0100 -0.3528 0.4348 0.4150 0.3755
v 0.2128 1.1900 -0.2128 0.6121 0.5843 0.5286
v 0.3528 1.1900 -0.2128 0.6121 0.5843 0.5286
v 0.3528 1.1900 -0.3528 0.6121 0.5843 0.5286
v 0.2128 1.1900 -0.3528 0.6121 0.5843 0.5286
v 0.3300 1.1900 -0.0700 0.2980 0.2845 0.2574
v 0.4700 1.1900 -0.0700 0.2980 0.2845 0.2574
v 0.4700 1.0100 -0.0700 0.2980 0.2845 0.2574
v 0.3300 1.0100 -0.0700 0.2980 0.2845 0.2574
v 0.4700 1.1900 0.0700 0.4044 0.3860 0.3493
v 0.3300 1.1900 0.0700 0.4044 0.3860 0.3493
v 0.3300 1.0100 0.0700 0.4044 0.3860 0.3493
v 0.4700 1.0100 0.0700 0.4044 0.3860 0.3493
v 0.3300 1.1900 0.0700 0.2980 0.2845 0.2574
v 0.3300 1.1900 -0.0700 0.2980 0.2845 0.2574
v 0.3300 1.0100 -0.0700 0.2980 0.2845 0.2574
v 0.3300 1.0100 0.0700 0.2980 0.2845 0.2574
v 0.4700 1.1900 -0.0700 0.4348 0.4150 0.3755
v 0.4700 1.1900 0.0700 0.4348 0.4150 0.3755
v 0.4700 1.0100 0.0700 0.4348 0.4150 0.3755
v 0.4700 1.0100 -0.0700 0.4348 0.4150 0.3755
v 0.3300 1.1900 0.0700 0.6121 0.5843 0.5286
v 0.4700 1.1900 0.0700 0.6121 0.5843 0.5286
v 0.4700 1.1900 -0.0700 0.6121 0.5843 0.5286
v 0.3300 1.1900 -0.0700 0.6121 0.5843 0.5286
v -0.1300 1.1000 -0.1300 0.0886 0.0931 0.1064
v 0.1300 1.1000 -0.1300 0.0886 0.0931 0.1064
v 0.1300 0.9000 -0.1300 0.0886 0.0931 0.1064
v -0.1300 0.9000 -0.1300 0.0886 0.0931 0.1064
v 0.1300 1.1000 0.1300 0.1203 0.1263 0.1443
v -0.1300 1.1000 0.1300 0.1203 0.1263 0.1443
v -0.1300 0.9000 0.1300 0.1203 0.1263 0.1443
v 0.1300 0.9000 0.1300 0.1203 0.1263 0.1443
v -0.1300 1.1000 0.1300 0.0886 0.0931 0.1064
v -0.1300 1.1000 -0.1300 0.0886 0.0931 0.1064
v -0.1300 0.9000 -0.1300 0.0886 0.0931 0.1064
v -0.1300 0.9000 0.1300 0.0886 0.0931 0.1064
v 0.1300 1.1000 -0.1300 0.1293 0.1358 0.1552
v 0.1300 1.1000 0.1300 0.1293 0.1358 0.1552
v 0.1300 0.9000 0.1300 0.1293 0.1358 0.1552
v 0.1300 0.9000 -0.1300 0.1293 0.1358 0.1552
v -0.1300 1.1000 0.1300 0.1824 0.1915 0.2189
v 0.1300 1.1000 0.1300 0.1824 0.1915 0.2189
v 0.1300 1.1000 -0.1300 0.1824 0.1915 0.2189
v -0.1300 1.1000 -0.1300 0.1824 0.1915 0.2189
v 0.6600 1.0000 0.0750 0.1532 0.1609 0.1839
v 0.6600 1.0530 0.0530 0.1532 0.1609 0.1839
v 0.0000 1.0530 0.0530 0.1532 0.1609 0.1839
v 0.0000 1.0000 0.0750 0.1532 0.1609 0.1839
v 0.6600 1.0530 0.0530 0.1865 0.1958 0.2238
v 0.6600 1.0750 0.0000 0.1865 0.1958 0.2238
v 0.0000 1.0750 0.0000 0.1865 0.1958 0.2238
v 0.0000 1.0530 0.0530 0.1865 0.1958 0.2238
v 0.6600 1.0750 0.0000 0.1620 0.1701 0.1944
v 0.6600 1.0530 -0.0530 0.1620 0.1701 0.1944
v 0.0000 1.0530 -0.0530 0.1620 0.1701 0.1944
v 0.0000 1.0750 0.0000 0.1620 0.1701 0.1944
v 0.6600 1.0530 -0.0530 0.0945 0.0992 0.1134
v 0.6600 1.0000 -0.0750 0.0945 0.0992 0.1134
v 0.0000 1.0000 -0.0750 0.0945 0.0992 0.1134
v 0.0000 1.0530 -0.0530 0.0945 0.0992 0.1134
v 0.6600 1.0000 -0.0750 0.0882 0.0926 0.1058
v 0.6600 0.9470 -0.0530 0.0882 0.0926 0.1058
v 0.0000 0.9470 -0.0530 0.0882 0.0926 0.1058
v 0.0000 1.0000 -0.0750 0.0882 0.0926 0.1058
v 0.6600 0.9470 -0.0530 0.0875 0.0919 0.1051
v 0.6600 0.9250 -0.0000 0.0875 0.0919 0.1051
v 0.0000 0.9250 -0.0000 0.0875 0.0919 0.1051
v 0.0000 0.9470 -0.0530 0.0875 0.0919 0.1051
v 0.6600 0.9250 -0.0000 0.0875 0.0919 0.1051
v 0.6600 0.9470 0.0530 0.0875 0.0919 0.1051
v 0.0000 0.9470 0.0530 0.0875 0.0919 0.1051
v 0.0000 0.9250 -0.0000 0.0875 0.0919 0.1051
v 0.6600 0.9470 0.0530 0.0882 0.0926 0.1058
v 0.6600 1.0000 0.0750 0.0882 0.0926 0.1058
v 0.0000 1.0000 0.0750 0.0882 0.0926 0.1058
v 0.0000 0.9470 0.0530 0.0882 0.0926 0.1058
v 0.6600 0.9470 0.0530 0.0776 0.0840 0.0970
v 0.6600 0.9250 -0.0000 0.0776 0.0840 0.0970
v 0.6600 0.9470 -0.0530 0.0776 0.0840 0.0970
v 0.6600 1.0000 -0.0750 0.0776 0.0840 0.0970
v 0.6600 1.0530 -0.0530 0.0776 0.0840 0.0970
v 0.6600 1.0750 0.0000 0.0776 0.0840 0.0970
v 0.6600 1.0530 0.0530 0.0776 0.0840 0.0970
v 0.6600 1.0000 0.0750 0.0776 0.0840 0.0970
v 0.6800 1.0000 0.0950 0.1425 0.1496 0.1710
v 0.6800 1.0672 0.0672 0.1425 0.1496 0.1710
v 0.6000 1.0530 0.0530 0.1425 0.1496 0.1710
v 0.6000 1.0000 0.0750 0.1425 0.1496 0.1710
v 0.6800 1.0672 0.0672 0.1750 0.1838 0.2100
v 0.6800 1.0950 0.0000 0.1750 0.1838 0.2100
v 0.6000 1.0750 0.0000 0.1750 0.1838 0.2100
v 0.6000 1.0530 0.0530 0.1750 0.1838 0.2100
v 0.6800 1.0950 0.0000 0.1511 0.1587 0.1813
v 0.6800 1.0672 -0.0672 0.1511 0.1587 0.1813
v 0.6000 1.0530 -0.0530 0.1511 0.1587 0.1813
v 0.6000 1.0750 0.0000 0.1511 0.1587 0.1813
v 0.6800 1.0672 -0.0672 0.0891 0.0936 0.1070
v 0.6800 1.0000 -0.0950 0.0891 0.0936 0.1070
v 0.6000 1.0000 -0.0750 0.0891 0.0936 0.1070
v 0.6000 1.0530 -0.0530 0.0891 0.0936 0.1070
v 0.6800 1.0000 -0.0950 0.0881 0.0925 0.1057
v 0.6800 0.9328 -0.0672 0.0881 0.0925 0.1057
v 0.6000 0.9470 -0.0530 0.0881 0.0925 0.1057
v 0.6000 1.0000 -0.0750 0.0881 0.0925 0.1057
v 0.6800 0.9328 -0.0672 0.0874 0.0918 0.1049
v 0.6800 0.9050 -0.0000 0.0874 0.0918 0.1049
v 0.6000 0.9250 -0.0000 0.0874 0.0918 0.1049
v 0.6000 0.9470 -0.0530 0.0874 0.0918 0.1049
v 0.6800 0.9050 -0.0000 0.0874 0.0918 0.1049
v 0.6800 0.9328 0.0672 0.0874 0.0918 0.1049
v 0.6000 0.9470 0.0530 0.0874 0.0918 0.1049
v 0.6000 0.9250 -0.0000 0.0874 0.0918 0.1049
v 0.6800 0.9328 0.0672 0.0881 0.0925 0.1057
v 0.6800 1.0000 0.0950 0.0881 0.0925 0.1057
v 0.6000 1.0000 0.0750 0.0881 0.0925 0.1057
v 0.6000 0.9470 0.0530 0.0881 0.0925 0.1057
f 1 2 3 4
f 5 6 7 8
f 9 10 11 12
f 13 14 15 16
f 17 18 19 20
f 21 22 23 24
f 25 26 27 28
f 29 30 31 32
f 33 34 35 36 37 38 39 40
f 41 42 43 44
f 45 46 47 48
f 49 50 51 52
f 53 54 55 56
f 57 58 59 60
f 61 62 63 64
f 65 66 67 68
f 69 70 71 72
f 73 74 75 76 77 78 79 80
f 81 82 83 84
f 85 86 87 88
f 89 90 91 92
f 93 94 95 96
f 97 98 99 100
f 101 102 103 104
f 105 106 107 108
f 109 110 111 112
f 113 114 115 116 117 118 119 120
f 121 122 123 124
f 125 126 127 128
f 129 130 131 132
f 133 134 135 136
f 137 138 139 140
f 141 142 143 144
f 145 146 147 148
f 149 150 151 152
f 153 154 155 156
f 157 158 159 160
f 161 162 163 164
f 165 166 167 168
f 169 170 171 172
f 173 174 175 176
f 177 178 179 180
f 181 182 183 184
f 185 186 187 188
f 189 190 191 192
f 193 194 195 196
f 197 198 199 200
f 201 202 203 204
f 205 206 207 208
f 209 210 211 212
f 213 214 215 216
f 217 218 219 220
f 221 222 223 224
f 225 226 227 228
f 229 230 231 232
f 233 234 235 236
f 237 238 239 240
f 241 242 243 244
f 245 246 247 248
f 249 250 251 252
f 253 254 255 256
f 257 258 259 260
f 261 262 263 264
f 265 266 267 268
f 269 270 271 272
f 273 274 275 276
f 277 278 279 280
f 281 282 283 284
f 285 286 287 288
f 289 290 291 292
f 293 294 295 296
f 297 298 299 300
f 301 302 303 304
f 305 306 307 308
f 309 310 311 312
f 313 314 315 316
f 317 318 319 320
f 321 322 323 324
f 325 326 327 328
f 329 330 331 332
f 333 334 335 336 337 338 339 340
f 341 342 343 344
f 345 346 347 348
f 349 350 351 352
f 353 354 355 356
f 357 358 359 360
f 361 362 363 364
f 365 366 367 368
f 369 370 371 372
